<svg width="360" height="668" viewBox="0 0 360 668" fill="none" xmlns="http://www.w3.org/2000/svg">
<rect width="360" height="668" fill="#333333"/>
<path d="M154.762 358.561V359.133C154.762 360.706 152.708 362.084 150.628 362.396L151.057 363.254C153.436 362.838 155.685 361.265 155.685 359.133V358.561H154.762ZM154.931 358.561V359.133C154.931 361.213 157.193 362.825 159.572 363.228L159.975 362.383C157.934 362.071 155.854 360.667 155.854 359.133V358.561H154.931ZM149.991 364.242V365.126H160.638V364.242H149.991ZM154.853 364.788V367.492H155.932V364.788H154.853ZM151.343 368.87V369.754H159.455V368.87H151.343ZM151.343 366.361V369.156H152.409V366.361H151.343ZM169.497 358.262V366.855H170.576V358.262H169.497ZM170.238 361.824V362.721H172.318V361.824H170.238ZM166.286 359.172V359.64C166.286 361.902 164.427 363.722 161.463 364.632L161.931 365.516C165.298 364.437 167.43 362.214 167.43 359.172H166.286ZM161.944 359.172V360.056H166.832V359.172H161.944ZM163.244 368.87V369.754H171.096V368.87H163.244ZM163.244 365.984V369.221H164.323V365.984H163.244ZM176.731 359.107C174.898 359.107 173.572 360.238 173.572 361.876C173.572 363.527 174.898 364.658 176.731 364.658C178.564 364.658 179.877 363.527 179.877 361.876C179.877 360.238 178.564 359.107 176.731 359.107ZM176.731 360.043C177.94 360.043 178.824 360.784 178.824 361.876C178.824 362.968 177.94 363.722 176.731 363.722C175.509 363.722 174.625 362.968 174.625 361.876C174.625 360.784 175.509 360.043 176.731 360.043ZM181.411 358.249V370.027H182.49V358.249H181.411ZM173.13 367.453C175.223 367.453 178.096 367.44 180.735 366.933L180.644 366.14C178.083 366.543 175.119 366.556 172.974 366.556L173.13 367.453ZM191.636 358.561V359.133C191.636 360.706 189.582 362.084 187.502 362.396L187.931 363.254C190.31 362.838 192.559 361.265 192.559 359.133V358.561H191.636ZM191.805 358.561V359.133C191.805 361.213 194.067 362.825 196.446 363.228L196.849 362.383C194.808 362.071 192.728 360.667 192.728 359.133V358.561H191.805ZM186.865 364.242V365.126H197.512V364.242H186.865ZM191.727 364.788V367.492H192.806V364.788H191.727ZM188.217 368.87V369.754H196.329V368.87H188.217ZM188.217 366.361V369.156H189.283V366.361H188.217ZM206.371 358.262V366.855H207.45V358.262H206.371ZM207.112 361.824V362.721H209.192V361.824H207.112ZM203.16 359.172V359.64C203.16 361.902 201.301 363.722 198.337 364.632L198.805 365.516C202.172 364.437 204.304 362.214 204.304 359.172H203.16ZM198.818 359.172V360.056H203.706V359.172H198.818ZM200.118 368.87V369.754H207.97V368.87H200.118ZM200.118 365.984V369.221H201.197V365.984H200.118Z" fill="#E9FFC9"/>
<path d="M206.722 297.008C206.474 297.039 206.243 297.151 206.065 297.326L169.701 333.685C169.264 334.1 169.254 334.879 169.676 335.307C170.098 335.735 170.878 335.732 171.298 335.3L182.343 324.258C187.063 324.222 193.168 323.625 198.323 321.418C203.645 319.138 208 314.898 208 308.085V298.144C208.005 297.498 207.362 296.927 206.722 297.008ZM205.728 300.878V308.088C205.728 313.967 202.256 317.254 197.418 319.325C193.51 320.998 188.806 321.687 184.704 321.899L205.728 300.878ZM159.03 308.37C158.751 308.405 158.493 308.539 158.304 308.747C158.115 308.955 158.007 309.225 158 309.506V345.864C158 346.459 158.541 347 159.136 347H195.5C196.095 347 196.636 346.459 196.636 345.864V328.82C196.645 328.22 196.101 327.668 195.5 327.668C194.899 327.668 194.355 328.22 194.364 328.82V344.728H160.272V310.642H184.704C185.305 310.65 185.858 310.106 185.858 309.505C185.858 308.904 185.305 308.36 184.704 308.369H159.136C159.1 308.369 159.065 308.369 159.03 308.369V308.37Z" fill="url(#paint0_linear_222_342)"/>
<defs>
<linearGradient id="paint0_linear_222_342" x1="158" y1="322" x2="208" y2="322" gradientUnits="userSpaceOnUse">
<stop offset="0.01" stop-color="#E9FFC9"/>
<stop offset="1" stop-color="#F2FFF5"/>
</linearGradient>
</defs>
</svg>
