<svg width="200" height="200" viewBox="0 0 200 200" fill="none" xmlns="http://www.w3.org/2000/svg">
<path d="M100 115C79.7 115 62 126.1 52.5 142.5C50.6 145.8 53.1 150 56.9 150H143.1C146.9 150 149.4 145.8 147.5 142.5C138 126.1 120.3 115 100 115ZM63.5 94.7L68.8 89.4L74.1 94.7C77 97.6 81.8 97.6 84.7 94.7C87.6 91.8 87.6 87 84.7 84.1L79.4 78.8L84.7 73.5C87.6 70.6 87.6 65.8 84.7 62.9C81.8 60 77 60 74.1 62.9L68.8 68.2L63.5 62.9C60.6 60 55.8 60 52.9 62.9C50 65.8 50 70.6 52.9 73.5L58.2 78.8L52.9 84.1C50 87 50 91.8 52.9 94.7C55.8 97.6 60.6 97.6 63.5 94.7ZM99.9 0C44.7 0 0 44.7 0 100C0 155.3 44.7 200 99.9 200C155.1 200 200 155.3 200 100C200 44.7 155.2 0 99.9 0ZM100 180C55.8 180 20 144.2 20 100C20 55.8 55.8 20 100 20C144.2 20 180 55.8 180 100C180 144.2 144.2 180 100 180ZM136.5 62.9L131.2 68.2L125.9 62.9C123 60 118.2 60 115.3 62.9C112.4 65.8 112.4 70.6 115.3 73.5L120.6 78.8L115.3 84.1C112.4 87 112.4 91.8 115.3 94.7C118.2 97.6 123 97.6 125.9 94.7L131.2 89.4L136.5 94.7C139.4 97.6 144.2 97.6 147.1 94.7C150 91.8 150 87 147.1 84.1L141.8 78.8L147.1 73.5C150 70.6 150 65.8 147.1 62.9C144.2 60 139.4 60 136.5 62.9Z" fill="#DCDDDD"/>
</svg>
